2014004_C5_01_grf
version=1
nRows=21
nColumns=19
inDegrees=no
endheader
time	ground_force_1_vx	ground_force_1_vy	ground_force_1_vz	ground_force_1_px	ground_force_1_py	ground_force_1_pz	ground_force_1_mx	ground_force_1_my	ground_force_1_mz	ground_force_2_vx	ground_force_2_vy	ground_force_2_vz	ground_force_2_px	ground_force_2_py	ground_force_2_pz	ground_force_2_mx	ground_force_2_my	ground_force_2_mz
      0.71500000	      0.00000000	      0.00000000	      0.00000000	      0.00000000	      0.00000000	      0.00000000	      0.00000000	      0.00000000	      0.00000000	    -30.69135454	    517.62505062	     22.52163440	      0.91586294	     -0.00200000	     -0.28343295	      0.00000000	     -3.32138371	      0.00000000
      0.71600000	      0.00000000	      0.00000000	      0.00000000	      0.00000000	      0.00000000	      0.00000000	      0.00000000	      0.00000000	      0.00000000	    -30.20891920	    516.21285081	     22.44289815	      0.91637842	     -0.00200000	     -0.28347382	      0.00000000	     -3.32805441	      0.00000000
      0.71700000	      0.00000000	      0.00000000	      0.00000000	      0.00000000	      0.00000000	      0.00000000	      0.00000000	      0.00000000	      0.00000000	    -29.72182818	    514.83801752	     22.36947119	      0.91689184	     -0.00200000	     -0.28351421	      0.00000000	     -3.33515698	      0.00000000
      0.71800000	      0.00000000	      0.00000000	      0.00000000	      0.00000000	      0.00000000	      0.00000000	      0.00000000	      0.00000000	      0.00000000	    -29.23081070	    513.49352673	     22.30044454	      0.91740363	     -0.00200000	     -0.28355425	      0.00000000	     -3.34256538	      0.00000000
      0.71900000	      0.00000000	      0.00000000	      0.00000000	      0.00000000	      0.00000000	      0.00000000	      0.00000000	      0.00000000	      0.00000000	    -28.73466257	    512.18754239	     22.23710865	      0.91791333	     -0.00200000	     -0.28359389	      0.00000000	     -3.35030616	      0.00000000
      0.72000000	      0.00000000	      0.00000000	      0.00000000	      0.00000000	      0.00000000	      0.00000000	      0.00000000	      0.00000000	      0.00000000	    -28.23426016	    510.91283932	     22.17848450	      0.91842135	     -0.00200000	     -0.28363323	      0.00000000	     -3.35826862	      0.00000000
      0.72100000	      0.00000000	      0.00000000	      0.00000000	      0.00000000	      0.00000000	      0.00000000	      0.00000000	      0.00000000	      0.00000000	    -27.72837598	    509.67779942	     22.12594971	      0.91892729	     -0.00200000	     -0.28367225	      0.00000000	     -3.36645031	      0.00000000
      0.72200000	      0.00000000	      0.00000000	      0.00000000	      0.00000000	      0.00000000	      0.00000000	      0.00000000	      0.00000000	      0.00000000	    -27.21799724	    508.47494602	     22.07845598	      0.91943155	     -0.00200000	     -0.28371105	      0.00000000	     -3.37475772	      0.00000000
      0.72300000	      0.00000000	      0.00000000	      0.00000000	      0.00000000	      0.00000000	      0.00000000	      0.00000000	      0.00000000	      0.00000000	    -26.70189179	    507.31287897	     22.03746364	      0.91993371	     -0.00200000	     -0.28374964	      0.00000000	     -3.38315636	      0.00000000
      0.72400000	      0.00000000	      0.00000000	      0.00000000	      0.00000000	      0.00000000	      0.00000000	      0.00000000	      0.00000000	      0.00000000	    -26.18114278	    506.18387014	     22.00181931	      0.92043422	     -0.00200000	     -0.28378808	      0.00000000	     -3.39157525	      0.00000000
      0.72500000	      0.00000000	      0.00000000	      0.00000000	      0.00000000	      0.00000000	      0.00000000	      0.00000000	      0.00000000	      0.00000000	    -25.65454785	    505.09673730	     21.97300866	      0.92093268	     -0.00200000	     -0.28382636	      0.00000000	     -3.39995295	      0.00000000
      0.72600000	      0.00000000	      0.00000000	      0.00000000	      0.00000000	      0.00000000	      0.00000000	      0.00000000	      0.00000000	      0.00000000	    -25.12327582	    504.04360145	     21.94976360	      0.92142948	     -0.00200000	     -0.28386453	      0.00000000	     -3.40824435	      0.00000000
      0.72700000	      0.00000000	      0.00000000	      0.00000000	      0.00000000	      0.00000000	      0.00000000	      0.00000000	      0.00000000	      0.00000000	    -24.58618023	    503.03353183	     21.93356082	      0.92192420	     -0.00200000	     -0.28390256	      0.00000000	     -3.41635965	      0.00000000
      0.72800000	      0.00000000	      0.00000000	      0.00000000	      0.00000000	      0.00000000	      0.00000000	      0.00000000	      0.00000000	      0.00000000	    -24.04446341	    502.05833092	     21.92303687	      0.92241725	     -0.00200000	     -0.28394047	      0.00000000	     -3.42427841	      0.00000000
      0.72900000	      0.00000000	      0.00000000	      0.00000000	      0.00000000	      0.00000000	      0.00000000	      0.00000000	      0.00000000	      0.00000000	    -23.49705435	    501.12728588	     21.91962227	      0.92290817	     -0.00200000	     -0.28397821	      0.00000000	     -3.43188296	      0.00000000
      0.73000000	      0.00000000	      0.00000000	      0.00000000	      0.00000000	      0.00000000	      0.00000000	      0.00000000	      0.00000000	      0.00000000	    -22.94518240	    500.23198128	     21.92186117	      0.92339736	     -0.00200000	     -0.28401579	      0.00000000	     -3.43918382	      0.00000000
      0.73100000	      0.00000000	      0.00000000	      0.00000000	      0.00000000	      0.00000000	      0.00000000	      0.00000000	      0.00000000	      0.00000000	    -22.38787711	    499.38190542	     21.93107009	      0.92388433	     -0.00200000	     -0.28405309	      0.00000000	     -3.44603944	      0.00000000
      0.73200000	      0.00000000	      0.00000000	      0.00000000	      0.00000000	      0.00000000	      0.00000000	      0.00000000	      0.00000000	      0.00000000	    -21.82635851	    498.56834114	     21.94572836	      0.92436950	     -0.00200000	     -0.28409013	      0.00000000	     -3.45248915	      0.00000000
      0.73300000	      0.00000000	      0.00000000	      0.00000000	      0.00000000	      0.00000000	      0.00000000	      0.00000000	      0.00000000	      0.00000000	    -21.25976421	    497.80094437	     21.96697518	      0.92485237	     -0.00200000	     -0.28412676	      0.00000000	     -3.45836775	      0.00000000
      0.73400000	      0.00000000	      0.00000000	      0.00000000	      0.00000000	      0.00000000	      0.00000000	      0.00000000	      0.00000000	      0.00000000	    -20.68927512	    497.07079679	     21.99326605	      0.92533336	     -0.00200000	     -0.28416297	      0.00000000	     -3.46374180	      0.00000000
      0.73500000	      0.00000000	      0.00000000	      0.00000000	      0.00000000	      0.00000000	      0.00000000	      0.00000000	      0.00000000	      0.00000000	    -20.11414804	    496.38772197	     22.02550471	      0.92581194	     -0.00200000	     -0.28419857	      0.00000000	     -3.46842943	      0.00000000
